<svg xmlns="http://www.w3.org/2000/svg" viewBox="0 0 420.94 420.93" width="38px" height="38px"><defs><style>.cls-1{fill:#fff;}</style></defs><title>Asset 1</title><g id="Layer_2" data-name="Layer 2"><rect class="cls-1" width="420.94" height="420.93"/><path d="M242.78,167c-10,0-17.26,5.05-22.25,14.51-3.15-9-10.62-14.51-21.25-14.51-10.46,0-18.1,5.23-22.74,14.51l-.85-12.82H152.77c.34,5.9.5,12,.5,17.88v67.26h25.09V200.76c0-6.41,2.82-14.83,10.12-14.83,7.8,0,9.12,7.07,9.12,13.48v54.46h24.75V200.76c0-6.41,3.17-14.83,10.31-14.83,7.79,0,9.13,7.07,9.13,13.48v54.46H266.7V197.22C266.7,180.53,260.05,167,242.78,167Z"/><rect x="154.53" y="84.85" width="112.42" height="19.84"/><rect x="154.53" y="316.76" width="112.42" height="19.84"/><path d="M351.29,84.85H323.18v19.84h18.18v63.87H361.2V84.85Z"/><path d="M60.27,252.89v83.7h38V316.76H80.1V252.89Z"/><rect x="341.36" y="200.18" width="19.84" height="21.08"/><rect x="60.27" y="200.18" width="19.83" height="21.08"/><path d="M341.36,252.89v63.87H323.18v19.83h38v-83.7Z"/><path d="M70.19,84.85H60.27v83.71H80.1V104.69H98.3V84.85Z"/></g></svg>
