<?xml version="1.0" encoding="UTF-8"?>
<svg id="Calque_1" xmlns="http://www.w3.org/2000/svg" version="1.1" viewBox="0 0 222.3 77.6">
  <!-- Generator: Adobe Illustrator 29.1.0, SVG Export Plug-In . SVG Version: 2.1.0 Build 142)  -->
  <defs>
    <style>
      .st0 {
        fill: #fff;
      }
    </style>
  </defs>
  <path class="st0" d="M11.2,71.8h8V15.9l-19.2.6v6.3h11.2v49.1Z"/>
  <path class="st0" d="M35.4,63.4c-.6,0-1.1,0-1.7.1-1.8.2-2.9,1-3.4,2.2-.3.6-.4,1.3-.4,2.2v1.1c.2,1.1.7,1.9,1.6,2.4h0c.1,0,.3.2.6.2s.3,0,.4.1h.3c.8.2,1.9.2,3.2.2s2.6,0,4-.1h1.7v-10.7c-.2-.8-.7-1.4-1.2-1.9,0,0-.2-.1-.2-.2-.7-.4-1.6-.8-2.8-.9h-3.7c-.6,0-1.1,0-1.7.1h-.2v2.7h5c.1,0,.3,0,.4.1.3,0,.6.2.7.3.2.2.3.6.3,1v.6h-2.7l-.2.3ZM38,68.7v.8h-1.7c-1,0-1.8,0-2.2-.2h-.2c-.3-.2-.6-.6-.6-1.1s0-.2,0-.3c0-.2,0-.3.2-.6.2-.4.8-.8,1.4-.8h3v2.4h0v-.2Z"/>
  <path class="st0" d="M53.3,72.1h3.7v-8.4c0-1.3-.2-2.3-.7-3.1-1-1.7-3-2.1-5.8-2.1s-3.9.2-5.4.3h0v13.3h3.7v-10.7h1.8c1.4,0,2.6.4,2.8,2.3v8.4h0Z"/>
  <path class="st0" d="M66.9,69.1s-.1,0-.2.1h-6.6v2.8h.1c1.3.1,2.6.1,3.9.1s.4,0,.7,0c3,0,4.7-.7,5.4-2l.3-.7c.1-.4.2-.9.2-1.6,0-1.6-.8-2.6-2.6-3.4-.1,0-.2-.1-.4-.2-.1,0-.3-.1-.4-.2h-.3c0-.1-1.6-.7-1.6-.7-.3-.1-.6-.2-.8-.3,0,0-.1,0-.2-.1-.2-.2-.2-.4-.2-.8,0-.8.6-1.2,3.7-1.2s.4,0,.7,0h1.3v-2.8h-3c-4.3,0-6.2,1.3-6.2,4.3s0,.3,0,.4v.3c0,.2,0,.4.1.7.4,1.3,1.7,2,3.2,2.6l1.9.7c.8.2,1.2.6,1.3.9h0c0,.3,0,.4-.1.7h0c0,.1-.2.4-.2.4Z"/>
  <path class="st0" d="M39.3,56.6c-1-3.7-1.3-7.9-1.3-12.1,0-9.8,1-22.4,13.2-22.4s12.3,12.3,12.3,21.4-.1,9.1-1.2,13.1c2.8-.8,6.3-.6,8-.3,1-3.9,1.4-8.3,1.4-13.2,0-13.8-3.2-27.7-20-27.7s-21.9,13.9-21.9,29.3.3,8.1,1.1,11.6c1.2-.2,5.3-.7,8.4.2h-.1Z"/>
  <path class="st0" d="M85,42.6s1-.2,2.8-.4c2.7-.3,3.2.9,3.2,4.3v7.2l2.4-.3v-8.4c0-1-.1-1.8-.4-2.4h0c.7-.4,1.7-1.1,3.1-1.3,2.3-.3,3.2,1,3.2,4.2v7.2l2.4-.3v-8.4c0-3.4-1.7-5-5.1-4.7-2.3.3-4,1.1-4.9,1.8-.9-.7-2.1-.9-3.7-.7-3.7.4-5.9,1-5.9,1v13.4l2.4-.3v-11.9h.3Z"/>
  <path class="st0" d="M179.9,42.8l4.4-.6v-1.8s-.9,0-3.9.4c-2.7.3-4.7-.2-4.7-3.6l5.2-.7c5.3-.7,5.3-8.4-1.6-7.6-3.6.4-6.2,2.7-6.2,8.2s2.6,6,6.6,5.4h.1ZM179.6,31.1c3.8-.4,3.9,3.8.7,4.1l-4.3.6c0-2.1,1-4.3,3.7-4.7h0Z"/>
  <path class="st0" d="M109.8,51.4c3.7-.4,5.9-1,5.9-1v-13.4l-2.4.3v11.9s-1,.2-2.8.4c-2.7.3-3.2-.9-3.2-4.3v-7.2l-2.4.3v8.4c0,3.4,1.7,5,5.1,4.7h-.1Z"/>
  <path class="st0" d="M135.2,34.7c-3.6.4-6.2,2.7-6.2,8.2s2.6,6,6.6,5.4l4.4-.6v-1.8s-.9,0-3.9.4c-2.7.3-4.7-.2-4.7-3.6l5.2-.7c5.3-.7,5.2-8.4-1.6-7.6h.1ZM131.5,41.2c0-2.1,1-4.3,3.7-4.7,3.8-.4,3.9,3.8.7,4.1l-4.3.6h0Z"/>
  <path class="st0" d="M166.3,44.5l5.3-.7v-18.9l-2.6.3v5.4h-2.4c-3.7.4-6.6,3-6.6,7.7s3.4,6.4,6.2,6.1h0ZM166.6,32.5c1.7-.2,2.4,0,2.4,0v9.9l-2.4.3c-2.3.3-4.1-1-4.1-4.6s1.1-5.2,4.1-5.7h0Z"/>
  <path class="st0" d="M195.7,36.5c0-4.2-6.7-2.6-6.7-5s1.8-2,4-2.3l1.7-.2v-1.8l-2.7.3c-3.4.4-5.6,2.1-5.6,4.6,0,4.7,6.6,2.4,6.6,5s-2.1,2.6-4.2,2.8c-2.2.2-2.8.3-2.8.3v1.8l4.4-.6c3.1-.4,5.1-2.1,5.1-4.9h.1Z"/>
  <path class="st0" d="M148.5,46.6l4.4-.6v-1.8s-.9,0-3.9.4c-2.7.3-4.7-.2-4.7-3.6l5.2-.7c5.3-.7,5.2-8.4-1.6-7.6-3.6.4-6.2,2.7-6.2,8.2s2.6,6,6.6,5.4h.1ZM148,34.7c3.8-.4,3.9,3.8.7,4.1l-4.3.6c0-2.1,1-4.3,3.7-4.7h0Z"/>
  <path class="st0" d="M138.7,32.1v-2.2l-6.4,1.3v1.7l6.4-.8Z"/>
  <path class="st0" d="M127.5,45c0-4.2-6.7-2.6-6.7-5s1.8-2,4-2.3l1.7-.2v-1.8l-2.7.3c-3.4.4-5.6,2.1-5.6,4.6,0,4.7,6.6,2.4,6.6,5s-2.1,2.6-4.2,2.8c-2.2.2-2.8.3-2.8.3v1.8l4.4-.6c3.1-.4,5.1-2.1,5.1-4.9h.1Z"/>
  <path class="st0" d="M96.3,65.4c0,3.8,1.9,7,7.1,7s7.1-3.2,7.1-7-1.9-7-7.1-7-7.1,3.2-7.1,7ZM103.4,61.1c2.4,0,3,2.3,3,4.4s-.7,4.1-3,4.1-3-2.3-3-4.4.7-4.1,3-4.1Z"/>
  <path class="st0" d="M126.6,58.3v.2h-1.7v2.9h1.7v12c0,.8-.3.9-.8.9h-1.8v3.1c.8,0,1.4.1,2.1.1,3.1,0,4.6-1.2,4.6-5.1v-11h2.9v-2.9h-2.9v-.2c0-1.6.4-2.2,2.1-2.2s2,.2,2.6.3v15.7h3.9v-18.9c-1.9-.3-4.6-.4-6.7-.4s-6,1-6,5.6h0Z"/>
  <path class="st0" d="M124.1,72.1v-8.3c0-4.3-2.4-5.3-6.6-5.3s-3.9.1-5.8.3v13.3h3.9v-10.7c.6,0,1.2-.1,1.8-.1,1.8,0,2.7.8,2.7,3.4v7.3h4Z"/>
  <path class="st0" d="M177.9,64.7v7.3h3.9v-8.3c0-4.3-2.4-5.3-6.6-5.3s-3.9.1-5.8.3v13.3h3.9v-10.7c.6,0,1.2-.1,1.8-.1,1.8,0,2.7.8,2.7,3.4h.1Z"/>
  <path class="st0" d="M162.5,58.4c-5.2,0-7.6,3-7.6,7s2.8,6.9,8.6,6.9,2,0,3.1-.2v-2.9h-2.1c-3.6,0-5-.4-5.3-2.1h2.2c5.3,0,6.8-2.2,6.8-4.4s-1.8-4.3-5.7-4.3h0ZM161.8,64.2h-2.8c.1-1.8,1.2-3,3.4-3s1.9.7,1.9,1.4-.6,1.4-2.6,1.4h0Z"/>
  <path class="st0" d="M206.1,72.3c1.1,0,2,0,3.1-.2v-2.9h-2.1c-3.6,0-5-.4-5.3-2.1h2.2c5.3,0,6.8-2.2,6.8-4.4s-1.8-4.3-5.7-4.3-7.6,3-7.6,7,2.8,6.9,8.6,6.9h0ZM205.1,61.2c1.4,0,1.9.7,1.9,1.4s-.6,1.4-2.6,1.4h-2.8c.1-1.8,1.2-3,3.4-3h0Z"/>
  <path class="st0" d="M90.4,72.3c1.1,0,2.2,0,3.6-.2v-2.9h-2.4c-3.8,0-5.2-.6-5.2-4.2s1.1-3.7,3-3.7,2.2.8,2.2,3.1h4v-.9c0-3.7-2.4-5.1-6.1-5.1s-7.3,2.9-7.3,6.9,2.3,7,8.4,7h-.1Z"/>
  <path class="st0" d="M191.8,72.3c1.1,0,2.2,0,3.6-.2v-2.9h-2.4c-3.8,0-5.2-.6-5.2-4.2s1.1-3.7,3-3.7,2.2.8,2.2,3.1h4v-.9c0-3.7-2.4-5.1-6.1-5.1s-7.3,2.9-7.3,6.9,2.3,7,8.4,7h-.1Z"/>
  <path class="st0" d="M149.5,69.2c-.6.1-1.2.2-1.8.2-1.8,0-2.7-.8-2.7-3.4v-7.3h-3.9v8.2c0,4.4,2.3,5.4,6.6,5.4s3.9-.1,5.9-.3v-13.3h-3.9v10.6h-.2Z"/>
  <path class="st0" d="M222.1,67.9c0-1.9-1.2-2.9-3.6-3.8l-2-.7c-.8-.3-1.2-.6-1.2-1.2s1-1.1,3.9-1.1,1.1,0,1.9,0v-2.8h-3c-4.2,0-6.4,1.2-6.4,4.3s1.2,3.2,3.4,4l2,.7c.9.3,1.3.6,1.3,1,0,.9-1.3.9-4.3.9s-1.7,0-2.8,0v2.9c1.3.1,2.7.1,4.1.1,4.8,0,6.9-1.2,6.9-4.3h-.2Z"/>
</svg>